<mxfile host="app.diagrams.net" modified="2024-03-04T07:01:08.252Z" agent="Mozilla/5.0 (Windows NT 10.0; Win64; x64) AppleWebKit/537.36 (KHTML, like Gecko) Chrome/122.0.0.0 Safari/537.36" etag="XI4JiV1IIj3yd3EK_OoI" version="23.0.2" type="github">
  <diagram name="페이지-1" id="Fl_7Pb2Cc-RpXfuVjaxF">
    <mxGraphModel dx="1969" dy="918" grid="1" gridSize="10" guides="1" tooltips="1" connect="1" arrows="1" fold="1" page="1" pageScale="1" pageWidth="1920" pageHeight="1200" math="0" shadow="0">
      <root>
        <mxCell id="0" />
        <mxCell id="1" parent="0" />
        <mxCell id="ETiy7SVQZo9bwU6vhNMR-1" value="회원" style="shape=umlActor;verticalLabelPosition=bottom;verticalAlign=top;html=1;outlineConnect=0;" vertex="1" parent="1">
          <mxGeometry x="20" y="325" width="30" height="60" as="geometry" />
        </mxCell>
        <mxCell id="ETiy7SVQZo9bwU6vhNMR-4" value="회원가입" style="ellipse;whiteSpace=wrap;html=1;align=center;" vertex="1" parent="1">
          <mxGeometry x="100" y="330" width="100" height="50" as="geometry" />
        </mxCell>
        <mxCell id="ETiy7SVQZo9bwU6vhNMR-6" value="체중 및 신장,성별&lt;br&gt;입력" style="ellipse;whiteSpace=wrap;html=1;align=center;" vertex="1" parent="1">
          <mxGeometry x="230" y="330" width="110" height="50" as="geometry" />
        </mxCell>
        <mxCell id="ETiy7SVQZo9bwU6vhNMR-7" value="로그인" style="ellipse;whiteSpace=wrap;html=1;align=center;" vertex="1" parent="1">
          <mxGeometry x="370" y="330" width="110" height="50" as="geometry" />
        </mxCell>
        <mxCell id="ETiy7SVQZo9bwU6vhNMR-8" value="예약 or pt 페이지" style="ellipse;whiteSpace=wrap;html=1;align=center;" vertex="1" parent="1">
          <mxGeometry x="530" y="610" width="110" height="50" as="geometry" />
        </mxCell>
        <mxCell id="ETiy7SVQZo9bwU6vhNMR-9" value="운동비교 페이지" style="ellipse;whiteSpace=wrap;html=1;align=center;" vertex="1" parent="1">
          <mxGeometry x="530" y="330" width="110" height="50" as="geometry" />
        </mxCell>
        <mxCell id="ETiy7SVQZo9bwU6vhNMR-10" value="표준 비교 페이지" style="ellipse;whiteSpace=wrap;html=1;align=center;" vertex="1" parent="1">
          <mxGeometry x="520" y="200" width="110" height="50" as="geometry" />
        </mxCell>
        <mxCell id="ETiy7SVQZo9bwU6vhNMR-11" value="메인 비교 페이지" style="ellipse;whiteSpace=wrap;html=1;align=center;" vertex="1" parent="1">
          <mxGeometry x="530" y="60" width="110" height="50" as="geometry" />
        </mxCell>
        <mxCell id="ETiy7SVQZo9bwU6vhNMR-12" value="pt or 일반 출석률" style="ellipse;whiteSpace=wrap;html=1;align=center;" vertex="1" parent="1">
          <mxGeometry x="710" y="140" width="110" height="50" as="geometry" />
        </mxCell>
        <mxCell id="ETiy7SVQZo9bwU6vhNMR-13" value="상,하,유 운동비교&lt;br&gt;그래프" style="ellipse;whiteSpace=wrap;html=1;align=center;" vertex="1" parent="1">
          <mxGeometry x="710" y="80" width="110" height="50" as="geometry" />
        </mxCell>
        <mxCell id="ETiy7SVQZo9bwU6vhNMR-14" value="캘린더&lt;span style=&quot;white-space: pre;&quot;&gt;&#x9;&lt;/span&gt;" style="ellipse;whiteSpace=wrap;html=1;align=center;" vertex="1" parent="1">
          <mxGeometry x="710" y="20" width="110" height="50" as="geometry" />
        </mxCell>
        <mxCell id="ETiy7SVQZo9bwU6vhNMR-15" value="표준데이터 비교&lt;br&gt;그래프" style="ellipse;whiteSpace=wrap;html=1;align=center;" vertex="1" parent="1">
          <mxGeometry x="710" y="200" width="110" height="50" as="geometry" />
        </mxCell>
        <mxCell id="ETiy7SVQZo9bwU6vhNMR-17" value="체중 변화 기록" style="ellipse;whiteSpace=wrap;html=1;align=center;" vertex="1" parent="1">
          <mxGeometry x="710" y="270" width="110" height="50" as="geometry" />
        </mxCell>
        <mxCell id="ETiy7SVQZo9bwU6vhNMR-18" value="개인정보 수정" style="ellipse;whiteSpace=wrap;html=1;align=center;" vertex="1" parent="1">
          <mxGeometry x="710" y="470" width="110" height="50" as="geometry" />
        </mxCell>
        <mxCell id="ETiy7SVQZo9bwU6vhNMR-19" value="회원탈퇴" style="ellipse;whiteSpace=wrap;html=1;align=center;" vertex="1" parent="1">
          <mxGeometry x="710" y="400" width="110" height="50" as="geometry" />
        </mxCell>
        <mxCell id="ETiy7SVQZo9bwU6vhNMR-20" value="운동 기록 오운완" style="ellipse;whiteSpace=wrap;html=1;align=center;" vertex="1" parent="1">
          <mxGeometry x="710" y="335" width="110" height="50" as="geometry" />
        </mxCell>
        <mxCell id="ETiy7SVQZo9bwU6vhNMR-22" value="운동 목적 및 트레이너 선택" style="ellipse;whiteSpace=wrap;html=1;align=center;" vertex="1" parent="1">
          <mxGeometry x="690" y="670" width="150" height="60" as="geometry" />
        </mxCell>
        <mxCell id="ETiy7SVQZo9bwU6vhNMR-23" value="체중 및 신장 성별&lt;br&gt;입력" style="ellipse;whiteSpace=wrap;html=1;align=center;" vertex="1" parent="1">
          <mxGeometry x="710" y="610" width="110" height="50" as="geometry" />
        </mxCell>
        <mxCell id="ETiy7SVQZo9bwU6vhNMR-24" value="수업 예약" style="ellipse;whiteSpace=wrap;html=1;align=center;" vertex="1" parent="1">
          <mxGeometry x="710" y="540" width="110" height="50" as="geometry" />
        </mxCell>
        <mxCell id="ETiy7SVQZo9bwU6vhNMR-26" value="" style="endArrow=none;html=1;rounded=0;" edge="1" parent="1">
          <mxGeometry relative="1" as="geometry">
            <mxPoint x="40" y="354.5" as="sourcePoint" />
            <mxPoint x="100" y="355" as="targetPoint" />
          </mxGeometry>
        </mxCell>
        <mxCell id="ETiy7SVQZo9bwU6vhNMR-28" value="" style="endArrow=block;dashed=1;endFill=0;endSize=12;html=1;rounded=0;exitX=1;exitY=0.5;exitDx=0;exitDy=0;entryX=0;entryY=0.5;entryDx=0;entryDy=0;" edge="1" parent="1" source="ETiy7SVQZo9bwU6vhNMR-4" target="ETiy7SVQZo9bwU6vhNMR-6">
          <mxGeometry width="160" relative="1" as="geometry">
            <mxPoint x="195" y="347" as="sourcePoint" />
            <mxPoint x="230" y="295" as="targetPoint" />
          </mxGeometry>
        </mxCell>
        <mxCell id="ETiy7SVQZo9bwU6vhNMR-31" value="" style="endArrow=none;html=1;rounded=0;entryX=1;entryY=0.5;entryDx=0;entryDy=0;" edge="1" parent="1" target="ETiy7SVQZo9bwU6vhNMR-6">
          <mxGeometry width="50" height="50" relative="1" as="geometry">
            <mxPoint x="370" y="355" as="sourcePoint" />
            <mxPoint x="330" y="285" as="targetPoint" />
          </mxGeometry>
        </mxCell>
        <mxCell id="ETiy7SVQZo9bwU6vhNMR-32" value="" style="endArrow=none;html=1;rounded=0;entryX=0;entryY=0.5;entryDx=0;entryDy=0;exitX=1;exitY=0.5;exitDx=0;exitDy=0;" edge="1" parent="1" source="ETiy7SVQZo9bwU6vhNMR-7" target="ETiy7SVQZo9bwU6vhNMR-9">
          <mxGeometry width="50" height="50" relative="1" as="geometry">
            <mxPoint x="350" y="440" as="sourcePoint" />
            <mxPoint x="390" y="375" as="targetPoint" />
          </mxGeometry>
        </mxCell>
        <mxCell id="ETiy7SVQZo9bwU6vhNMR-33" value="" style="endArrow=none;html=1;rounded=0;entryX=0;entryY=0.5;entryDx=0;entryDy=0;" edge="1" parent="1" target="ETiy7SVQZo9bwU6vhNMR-10">
          <mxGeometry width="50" height="50" relative="1" as="geometry">
            <mxPoint x="480" y="355" as="sourcePoint" />
            <mxPoint x="520" y="290" as="targetPoint" />
          </mxGeometry>
        </mxCell>
        <mxCell id="ETiy7SVQZo9bwU6vhNMR-34" value="" style="endArrow=none;html=1;rounded=0;entryX=0;entryY=0.5;entryDx=0;entryDy=0;" edge="1" parent="1" target="ETiy7SVQZo9bwU6vhNMR-11">
          <mxGeometry width="50" height="50" relative="1" as="geometry">
            <mxPoint x="480" y="350" as="sourcePoint" />
            <mxPoint x="410" y="395" as="targetPoint" />
          </mxGeometry>
        </mxCell>
        <mxCell id="ETiy7SVQZo9bwU6vhNMR-35" value="" style="endArrow=none;html=1;rounded=0;entryX=1;entryY=0.5;entryDx=0;entryDy=0;exitX=0;exitY=0.5;exitDx=0;exitDy=0;" edge="1" parent="1" source="ETiy7SVQZo9bwU6vhNMR-8" target="ETiy7SVQZo9bwU6vhNMR-7">
          <mxGeometry width="50" height="50" relative="1" as="geometry">
            <mxPoint x="380" y="470" as="sourcePoint" />
            <mxPoint x="420" y="405" as="targetPoint" />
          </mxGeometry>
        </mxCell>
        <mxCell id="ETiy7SVQZo9bwU6vhNMR-37" value="" style="endArrow=none;html=1;rounded=0;entryX=0;entryY=0.5;entryDx=0;entryDy=0;" edge="1" parent="1" target="ETiy7SVQZo9bwU6vhNMR-14">
          <mxGeometry width="50" height="50" relative="1" as="geometry">
            <mxPoint x="640" y="85" as="sourcePoint" />
            <mxPoint x="680" y="20" as="targetPoint" />
          </mxGeometry>
        </mxCell>
        <mxCell id="ETiy7SVQZo9bwU6vhNMR-38" value="" style="endArrow=none;html=1;rounded=0;entryX=0;entryY=0.5;entryDx=0;entryDy=0;exitX=0;exitY=0.5;exitDx=0;exitDy=0;" edge="1" parent="1" source="ETiy7SVQZo9bwU6vhNMR-13">
          <mxGeometry width="50" height="50" relative="1" as="geometry">
            <mxPoint x="600" y="155" as="sourcePoint" />
            <mxPoint x="640" y="90" as="targetPoint" />
          </mxGeometry>
        </mxCell>
        <mxCell id="ETiy7SVQZo9bwU6vhNMR-39" value="" style="endArrow=none;html=1;rounded=0;entryX=0;entryY=0.5;entryDx=0;entryDy=0;exitX=0;exitY=0.5;exitDx=0;exitDy=0;" edge="1" parent="1" source="ETiy7SVQZo9bwU6vhNMR-12">
          <mxGeometry width="50" height="50" relative="1" as="geometry">
            <mxPoint x="600" y="155" as="sourcePoint" />
            <mxPoint x="640" y="90" as="targetPoint" />
          </mxGeometry>
        </mxCell>
        <mxCell id="ETiy7SVQZo9bwU6vhNMR-40" value="" style="endArrow=none;html=1;rounded=0;entryX=0;entryY=0.5;entryDx=0;entryDy=0;" edge="1" parent="1" target="ETiy7SVQZo9bwU6vhNMR-15">
          <mxGeometry width="50" height="50" relative="1" as="geometry">
            <mxPoint x="630" y="225" as="sourcePoint" />
            <mxPoint x="670" y="160" as="targetPoint" />
          </mxGeometry>
        </mxCell>
        <mxCell id="ETiy7SVQZo9bwU6vhNMR-41" value="" style="endArrow=none;html=1;rounded=0;" edge="1" parent="1">
          <mxGeometry width="50" height="50" relative="1" as="geometry">
            <mxPoint x="640" y="355" as="sourcePoint" />
            <mxPoint x="710" y="295" as="targetPoint" />
          </mxGeometry>
        </mxCell>
        <mxCell id="ETiy7SVQZo9bwU6vhNMR-42" value="" style="endArrow=none;html=1;rounded=0;entryX=0;entryY=0.5;entryDx=0;entryDy=0;" edge="1" parent="1" target="ETiy7SVQZo9bwU6vhNMR-49">
          <mxGeometry width="50" height="50" relative="1" as="geometry">
            <mxPoint x="640" y="634.5" as="sourcePoint" />
            <mxPoint x="710" y="634.5" as="targetPoint" />
          </mxGeometry>
        </mxCell>
        <mxCell id="ETiy7SVQZo9bwU6vhNMR-43" value="" style="endArrow=none;html=1;rounded=0;entryX=0;entryY=0.5;entryDx=0;entryDy=0;" edge="1" parent="1" target="ETiy7SVQZo9bwU6vhNMR-20">
          <mxGeometry width="50" height="50" relative="1" as="geometry">
            <mxPoint x="640" y="355" as="sourcePoint" />
            <mxPoint x="680" y="290" as="targetPoint" />
          </mxGeometry>
        </mxCell>
        <mxCell id="ETiy7SVQZo9bwU6vhNMR-44" value="" style="endArrow=none;html=1;rounded=0;entryX=1;entryY=0.5;entryDx=0;entryDy=0;exitX=0;exitY=0.5;exitDx=0;exitDy=0;" edge="1" parent="1" source="ETiy7SVQZo9bwU6vhNMR-19" target="ETiy7SVQZo9bwU6vhNMR-9">
          <mxGeometry width="50" height="50" relative="1" as="geometry">
            <mxPoint x="600" y="425" as="sourcePoint" />
            <mxPoint x="640" y="360" as="targetPoint" />
          </mxGeometry>
        </mxCell>
        <mxCell id="ETiy7SVQZo9bwU6vhNMR-45" value="" style="endArrow=none;html=1;rounded=0;exitX=0;exitY=0.5;exitDx=0;exitDy=0;" edge="1" parent="1" source="ETiy7SVQZo9bwU6vhNMR-18">
          <mxGeometry width="50" height="50" relative="1" as="geometry">
            <mxPoint x="600" y="425" as="sourcePoint" />
            <mxPoint x="640" y="350" as="targetPoint" />
          </mxGeometry>
        </mxCell>
        <mxCell id="ETiy7SVQZo9bwU6vhNMR-46" value="" style="endArrow=none;html=1;rounded=0;entryX=0;entryY=0.5;entryDx=0;entryDy=0;" edge="1" parent="1" target="ETiy7SVQZo9bwU6vhNMR-24">
          <mxGeometry width="50" height="50" relative="1" as="geometry">
            <mxPoint x="640" y="633" as="sourcePoint" />
            <mxPoint x="680" y="568" as="targetPoint" />
          </mxGeometry>
        </mxCell>
        <mxCell id="ETiy7SVQZo9bwU6vhNMR-47" value="" style="endArrow=none;html=1;rounded=0;entryX=0;entryY=0.5;entryDx=0;entryDy=0;" edge="1" parent="1" target="ETiy7SVQZo9bwU6vhNMR-23">
          <mxGeometry width="50" height="50" relative="1" as="geometry">
            <mxPoint x="640" y="637.5" as="sourcePoint" />
            <mxPoint x="680" y="572.5" as="targetPoint" />
          </mxGeometry>
        </mxCell>
        <mxCell id="ETiy7SVQZo9bwU6vhNMR-48" value="" style="endArrow=none;html=1;rounded=0;entryX=0;entryY=0.5;entryDx=0;entryDy=0;exitX=0;exitY=0.5;exitDx=0;exitDy=0;" edge="1" parent="1" source="ETiy7SVQZo9bwU6vhNMR-22">
          <mxGeometry width="50" height="50" relative="1" as="geometry">
            <mxPoint x="600" y="705" as="sourcePoint" />
            <mxPoint x="640" y="640" as="targetPoint" />
          </mxGeometry>
        </mxCell>
        <mxCell id="ETiy7SVQZo9bwU6vhNMR-49" value="운동 예약 취소&lt;br&gt;및 변경" style="ellipse;whiteSpace=wrap;html=1;align=center;" vertex="1" parent="1">
          <mxGeometry x="710" y="740" width="110" height="50" as="geometry" />
        </mxCell>
      </root>
    </mxGraphModel>
  </diagram>
</mxfile>
